<svg width="369" height="208" viewBox="0 0 369 208" fill="none" xmlns="http://www.w3.org/2000/svg">
<rect x="3" y="3" width="363" height="201" stroke="black" stroke-width="6"/>
<path d="M129.884 100.636L4.5 6.06445L135.994 94.9334C137.182 95.7361 137.164 97.4911 135.96 98.2697L132.174 100.719C131.469 101.175 130.554 101.142 129.884 100.636Z" fill="#BBBABA"/>
<path d="M233.106 100.381L237.284 103.737C237.999 104.311 239.012 104.325 239.743 103.772L293 63.4746L367 6.06445L233.233 97.1688C232.122 97.9252 232.059 99.5398 233.106 100.381Z" fill="#BBBABA"/>
<path d="M187.684 128.484L5.71985 5.28288C5.59612 5.19911 5.48092 5.11277 5.37372 5.02493C4.386 4.21567 5.2083 3 6.48521 3H363.519C365.363 3 364.903 4.27244 363.519 5.25729L190.289 128.458C189.547 128.986 188.441 128.997 187.684 128.484Z" stroke="black" stroke-width="6"/>
<path d="M139.2 97.6327L5.10047 201.384C3.79764 202.392 4.68 204.17 6.48316 204.17H360.053C361.851 204.17 362.736 202.4 361.442 201.39L232.336 100.501C231.583 99.9124 230.395 99.8935 229.614 100.458L190.296 128.843C189.553 129.38 188.434 129.392 187.673 128.872L141.874 97.5661C141.093 97.0321 139.939 97.0609 139.2 97.6327Z" stroke="black" stroke-width="6"/>
</svg>
